<svg id="visual" viewBox="0 0 960 300" width="960" height="300" xmlns="http://www.w3.org/2000/svg" xmlns:xlink="http://www.w3.org/1999/xlink" version="1.1"><rect x="0" y="0" width="960" height="300" fill="#003049"></rect><path d="M0 93L137 161L274 128L411 65L549 130L686 146L823 88L960 128L960 301L823 301L686 301L549 301L411 301L274 301L137 301L0 301Z" fill="#f77f00"></path><path d="M0 171L137 129L274 174L411 166L549 176L686 168L823 172L960 115L960 301L823 301L686 301L549 301L411 301L274 301L137 301L0 301Z" fill="#fb9127"></path><path d="M0 189L137 162L274 204L411 190L549 202L686 171L823 202L960 165L960 301L823 301L686 301L549 301L411 301L274 301L137 301L0 301Z" fill="#ffa240"></path><path d="M0 177L137 235L274 180L411 180L549 193L686 211L823 190L960 199L960 301L823 301L686 301L549 301L411 301L274 301L137 301L0 301Z" fill="#ffa240"></path><path d="M0 204L137 240L274 241L411 253L549 218L686 251L823 245L960 243L960 301L823 301L686 301L549 301L411 301L274 301L137 301L0 301Z" fill="#fb9127"></path><path d="M0 260L137 259L274 259L411 265L549 270L686 246L823 275L960 242L960 301L823 301L686 301L549 301L411 301L274 301L137 301L0 301Z" fill="#f77f00"></path></svg>