<svg xmlns="http://www.w3.org/2000/svg" version="1.1" xmlns:xlink="http://www.w3.org/1999/xlink" xmlns:svgjs="http://svgjs.dev/svgjs" width="2000" height="449" viewBox="0 0 2000 449"><g transform="matrix(1,0,0,1,-1.2121212121212466,0.03169056046965579)"><svg viewBox="0 0 396 89" data-background-color="#ffffff" preserveAspectRatio="xMidYMid meet" height="449" width="2000" xmlns="http://www.w3.org/2000/svg" xmlns:xlink="http://www.w3.org/1999/xlink"><g id="tight-bounds" transform="matrix(1,0,0,1,0.2400000000000091,-0.006281647843650262)"><svg viewBox="0 0 395.52 89.0125632956873" height="89.0125632956873" width="395.52"><g><svg viewBox="0 0 537.0234294416081 120.85819175879399" height="89.0125632956873" width="395.52"><g transform="matrix(1,0,0,1,0,16.70326673366835)"><svg viewBox="0 0 395.52 87.45165829145729" height="87.45165829145729" width="395.52"><g><svg viewBox="0 0 395.52 87.45165829145729" height="87.45165829145729" width="395.52"><g><svg viewBox="0 0 395.52 87.45165829145729" height="87.45165829145729" width="395.52"><g transform="matrix(1,0,0,1,0,0)"><svg width="395.52" viewBox="2.91 -36.04 165.17000000000002 36.53" height="87.45165829145729" data-palette-color="#ff8320"><path d="M25.56-11.28L30.27-11.28Q29.61-5.64 26.11-2.58 22.61 0.49 16.8 0.49L16.8 0.49Q10.5 0.49 6.7-4.03 2.91-8.54 2.91-16.11L2.91-16.11 2.91-19.53Q2.91-24.49 4.68-28.25 6.45-32.01 9.69-34.02 12.94-36.04 17.21-36.04L17.21-36.04Q22.88-36.04 26.29-32.87 29.71-29.71 30.27-24.12L30.27-24.12 25.56-24.12Q24.95-28.37 22.91-30.27 20.87-32.18 17.21-32.18L17.21-32.18Q12.72-32.18 10.17-28.86 7.62-25.54 7.62-19.41L7.62-19.41 7.62-15.97Q7.62-10.18 10.03-6.76 12.45-3.34 16.8-3.34L16.8-3.34Q20.7-3.34 22.79-5.11 24.88-6.88 25.56-11.28L25.56-11.28ZM41.7-35.55L41.7 0 37.01 0 37.01-35.55 41.7-35.55ZM70.36-20.26L70.36-16.43 54.95-16.43 54.95-3.83 72.85-3.83 72.85 0 50.26 0 50.26-35.55 72.6-35.55 72.6-31.69 54.95-31.69 54.95-20.26 70.36-20.26ZM99.43 0L91.72-14.38 83.37-14.38 83.37 0 78.65 0 78.65-35.55 90.42-35.55Q96.43-35.55 99.66-32.81 102.9-30.08 102.9-24.85L102.9-24.85Q102.9-21.53 101.1-19.07 99.31-16.6 96.11-15.38L96.11-15.38 104.46-0.29 104.46 0 99.43 0ZM83.37-31.69L83.37-18.21 90.57-18.21Q94.06-18.21 96.12-20.02 98.19-21.83 98.19-24.85L98.19-24.85Q98.19-28.15 96.22-29.91 94.26-31.67 90.54-31.69L90.54-31.69 83.37-31.69ZM130.21 0L122.5-14.38 114.15-14.38 114.15 0 109.44 0 109.44-35.55 121.21-35.55Q127.21-35.55 130.45-32.81 133.68-30.08 133.68-24.85L133.68-24.85Q133.68-21.53 131.89-19.07 130.09-16.6 126.89-15.38L126.89-15.38 135.24-0.29 135.24 0 130.21 0ZM114.15-31.69L114.15-18.21 121.35-18.21Q124.84-18.21 126.91-20.02 128.97-21.83 128.97-24.85L128.97-24.85Q128.97-28.15 127-29.91 125.04-31.67 121.33-31.69L121.33-31.69 114.15-31.69ZM163.27 0L159.88-9.28 144.98-9.28 141.64 0 136.8 0 150.38-35.55 154.48-35.55 168.08 0 163.27 0ZM152.43-29.76L146.4-13.13 158.48-13.13 152.43-29.76Z" opacity="1" transform="matrix(1,0,0,1,0,0)" fill="#ff8320" class="undefined-text-0" data-fill-palette-color="primary" id="text-0"></path></svg></g></svg></g></svg></g></svg></g><g transform="matrix(1,0,0,1,416.16523768281405,0)"><svg viewBox="0 0 120.85819175879399 120.85819175879399" height="120.85819175879399" width="120.85819175879399"><g data-palette-color="#ffaa66"><rect width="33.03457241407036" height="120.85819175879399" fill="#ffaa66" stroke="transparent" data-fill-palette-color="accent" x="0" fill-opacity="1"></rect><rect width="33.03457241407036" height="120.85819175879399" fill="#ffaa66" stroke="transparent" data-fill-palette-color="accent" x="40.286063919598" fill-opacity="0.75"></rect><rect width="33.03457241407036" height="120.85819175879399" fill="#ffaa66" stroke="transparent" data-fill-palette-color="accent" x="80.572127839196" fill-opacity="0.5"></rect></g></svg></g></svg></g><defs></defs></svg><rect width="395.52" height="89.0125632956873" fill="none" stroke="none" visibility="hidden"></rect></g></svg></g></svg>